<svg viewBox="0 0 256 817" fill="none" xmlns="http://www.w3.org/2000/svg">
<path d="M69.562 746.313C67.9236 746.725 67.0965 746.825 65.566 747.112C66.4771 747.005 67.9396 746.501 69.562 746.313Z" fill="#595A51"/>
<path d="M59.1725 475.389C60.2195 470.61 59.4642 463.697 63.1685 459.406C61.9657 464.788 60.8988 470.135 59.1725 475.389Z" fill="#595A51"/>
<path d="M111.119 538.525C109.717 539.596 110.568 541.342 110.32 542.521C107.555 555.767 105.617 571.315 102.432 583.783C101.102 588.993 98.4802 593.261 97.5252 598.46C96.1146 598.668 96.742 596.658 96.9178 595.859C97.8489 591.639 100.654 587.199 101.805 582.356C103.611 574.744 103.583 566.788 104.942 559.12C106.308 551.424 108.686 543.772 110.332 536.135L111.119 538.529V538.525Z" fill="#595A51"/>
<path d="M215.014 759.1L213.415 758.301C214.147 758.433 215.066 757.965 215.014 759.1Z" fill="#595A51"/>
<path d="M58.3734 763.895C56.9428 763.596 56.795 763.728 55.1766 763.096C56.0797 763.132 57.0028 762.956 57.9058 763.164L58.3734 763.895Z" fill="#595A51"/>
<path d="M50.3815 453.012C49.1747 452.932 47.2846 453.532 47.1847 452.213C48.5993 451.741 49.4824 452.748 50.3815 453.012Z" fill="#595A51"/>
<path d="M44.7871 760.699C43.1927 760.659 41.5784 760.735 39.984 760.691L39.6004 759.092L38.7972 760.695L37.5984 758.713C40.0879 756.395 43.6483 758.213 45.5863 755.104L44.7871 760.699Z" fill="#595A51"/>
<path d="M60.7709 763.895C60.651 763.18 60.9707 762.301 60.731 761.55C58.0537 761.622 54.9409 759.376 52.7831 761.902C52.6871 762.129 54.6611 762.896 55.1766 763.096C51.7561 762.964 48.919 762.617 45.5864 762.297C45.2707 761.969 45.1228 761.13 44.7871 760.699C47.4404 760.767 50.1298 760.659 52.7831 760.699C52.7271 760.187 52.8909 759.524 52.779 759.104C55.1127 759.364 60.4752 758.034 60.7709 758.305C60.9467 758.469 61.4382 763 62.3613 758.305H60.7709L61.5701 754.305C62.9607 754.553 62.0736 756.479 62.7529 757.518C63.6959 758.964 70.5569 759.104 70.1813 763.368C69.7058 768.794 63.9317 764.523 60.7709 763.895ZM64.7628 759.904L61.5781 760.707L63.1805 761.897L61.5781 763.088L64.7668 759.904H64.7628ZM65.9656 761.498V762.297C66.4851 762.029 66.4851 761.766 65.9656 761.498ZM67.9556 765.494V761.502C67.536 760.579 65.0426 764.978 67.9556 765.494Z" fill="#595A51"/>
<path d="M86.3449 329.138L85.9453 332.343C85.3259 332.343 85.3499 330.057 84.7465 329.138C85.2739 329.102 85.8174 329.158 86.3449 329.138Z" fill="#595A51"/>
<path d="M75.9559 799.859C74.4614 800.654 73.2267 800.57 72.911 800.782C72.2357 801.229 71.912 805.717 71.0649 807.355C65.6264 817.896 33.5311 817.437 24.0288 813.829C17.3396 811.287 11.5575 802.224 13.963 795.008C14.5784 793.154 16.2727 793.07 16.8001 792.051C17.6513 790.412 17.5913 787.168 18.3745 785.034C21.1717 777.418 26.4104 775.512 29.743 769.23C31.9287 765.114 37.3272 748.491 35.581 744.727C35.0576 743.6 33.2794 742.741 32.3963 740.723C30.5661 736.535 29.5791 727.62 30.9298 723.265C32.0167 719.764 35.7568 719.033 36.0645 715.557C36.4361 711.365 33.4911 707.821 32.3963 703.956C29.3514 693.235 36.0246 676.437 36.7878 664.389C37.527 652.669 35.9726 640.117 36.8038 628.441C37.599 617.277 42.438 606.028 43.1733 594.856C43.5609 588.93 42.1303 583.319 42.3581 577.253C42.7817 565.953 45.0274 560.534 43.2492 548.451C41.3192 535.344 38.9336 518.749 39.1614 505.319C39.2293 501.251 42.506 482.098 41.4071 480.336C41.1274 479.885 39.553 479.869 39.4131 479.049C39.0495 476.956 41.2912 463.338 41.7867 459.997C45.5788 434.463 47.0294 408.681 50.3859 383.083C50.9374 378.876 53.6226 370.133 53.5427 367.016C53.4828 364.674 47.341 364.746 45.9425 360.347C45.4909 358.928 44.7437 353.509 44.7197 351.907C44.6678 348.774 46.6497 345.394 44.8276 342.469C44.3801 341.749 42.8816 341.69 42.518 340.619C42.0944 339.38 43.1133 337.046 41.5989 337.13C38.578 348.215 34.0066 358.864 30.8019 369.893C28.696 377.141 24.0847 390.688 26.1386 397.724C27.6011 402.731 33.7709 408.413 34.3223 414.315L35.0216 446.043C33.7629 451.486 28.0087 448.776 27.9927 449.412C33.6949 451.805 36.2883 462.079 27.9927 461.803L27.8329 465.599C25.2396 468.101 19.3775 463.825 16.8881 462.127C8.38073 456.337 4.26492 447.633 1.00024 438.055C-1.36535 431.118 1.1441 426.419 1.62361 419.834C4.02516 386.868 3.78541 354.452 4.83634 321.55C4.91226 319.144 6.36678 315.009 6.0551 312.727C5.87128 311.376 3.1061 308.943 2.6146 306.174C1.97925 302.589 1.11613 292.12 2.86235 289.211C3.88531 287.501 6.58655 287.409 7.09803 284.592C7.67744 281.403 4.7764 277.715 5.16001 274.758C5.43173 272.692 7.5256 269.767 8.25286 267.425C18.3346 234.874 20.1887 204.685 27.4413 172.33C32.7119 148.81 36.1604 146.017 57.2869 135.843C64.8832 132.187 88.6789 123.76 93.498 119.308C96.2153 116.799 98.5329 108.068 101.17 104.607C102.197 103.26 104.427 102.217 104.555 102.002C106.581 98.5292 103.144 92.839 102.369 89.7382C101.686 87.005 101.454 82.3657 100.755 80.3318C100.527 79.6724 98.7167 79.8241 97.3421 77.982C94.6249 74.3497 90.9007 61.6267 93.1504 57.411C93.8417 56.1163 95.8796 56.0603 96.0035 55.3131C96.2552 53.7627 93.8297 50.7459 93.518 48.2404C90.3293 22.5266 102.273 3.66987 128.514 0.0295784C131.411 -0.37401 142.48 3.46202 145.693 4.86059C158.472 10.4149 164.422 20.121 165.453 33.851C165.932 40.2445 166.628 50.7259 163.067 55.8087C170.903 56.2882 165.864 69.8383 163.75 74.4856C162.512 77.2108 158.955 81.0989 158.62 82.1258C157.92 84.2557 155.419 93.4463 155.147 95.4443C154.096 103.152 156.909 100.971 160.214 105.422C163.227 109.478 164.694 115.975 167.906 120.107C186.751 130.665 220.133 136.407 228.988 158.124C237.907 179.998 238.906 218.159 244.033 242.978C245.995 252.48 252.34 269.231 253.032 277.163C253.315 280.408 250.674 285.019 251.757 289.419C251.941 290.166 255.345 290.777 255.781 295.98C256.092 299.744 253.787 311.009 251.801 314.17C251.217 315.097 249.491 314.949 249.343 316.731C249.239 317.99 250.186 319.828 250.218 321.514C250.634 345.829 248.9 370.045 250.15 394.308C250.71 405.157 252.744 416.425 253.371 427.05C253.863 435.374 250.502 446.263 246.354 453.584C245.563 454.978 242.886 458.231 241.671 459.29C240.36 460.437 230.063 466.514 228.956 466.618C224.864 467.002 227.478 459.138 220.597 462.219C221.056 465.304 222.395 468.944 222.722 471.921C222.858 473.159 223.178 478.814 223.102 479.825C222.986 481.335 221.408 480.924 221.392 481.447C221.016 492.504 224.401 505.555 223.845 518.19C223.29 530.825 218.247 545.45 219.026 557.302C219.502 564.562 220.485 569.577 220.573 577.261C220.776 594.548 222.407 605.517 224.505 622.148C226.574 638.555 224.045 655.23 225.416 671.585C226.287 681.995 233.755 693.811 231.617 704.184C231.034 707.009 227.134 711.441 226.986 714.03C226.878 715.916 230.427 719.145 230.926 722.817C231.346 725.918 231.366 733.183 230.926 736.264C230.383 740.08 226.243 743.952 226.431 747.396C226.662 751.584 231.242 766.673 233.012 771.08C234.614 775.076 237.24 777.765 238.894 781.182C240.404 784.303 240.7 788.203 241.951 790.884C242.474 792.007 243.833 791.851 244.236 793.389C245.699 798.944 244.496 807.019 240.221 811.091C231.845 819.063 196.929 818.811 189.428 809.865C186.671 806.572 187.282 802.061 185.816 799.891C185.053 798.764 183.231 798.704 182.272 797.841C178.264 794.232 180.11 782.936 182.244 779.088C182.056 786.273 178.471 795.247 186.647 799.052L188.629 796.674C189.025 801.125 192.186 803.375 196.086 804.81C205.412 808.234 226.782 807.259 235.713 802.584C238.386 801.185 245.515 795.575 241.783 792.678C241.635 795.959 240.372 797.925 237.787 799.863C230.71 805.161 205.7 806.947 197.44 804.258C189.4 801.641 189.073 794.564 190.595 787.036C192.118 779.507 200.833 776.95 201.428 769.506L198.239 769.494L198.247 772.215C198.079 773.549 194.151 772.906 195.17 769.266C195.858 766.8 199.926 766.984 199.043 763.911C200.569 764.123 200.065 766.485 201.996 767.004C203.35 767.368 205.436 766.461 207.026 766.305C206.735 766.481 206.467 767.468 205.436 767.116C205.228 767.472 206.495 768.702 206.627 768.702H218.615C218.898 768.702 221.528 768.535 219.817 767.5C215.757 764.663 211.514 765.865 207.026 766.305C208.617 765.35 215.745 763.524 218.215 763.108C217.887 763.708 216.389 765.278 216.617 765.498L223.01 767.096C221.783 764.383 221.647 762.533 218.215 763.108C218.579 762.437 219.761 761.21 218.603 760.699L207.03 763.903L207.838 760.711C210.831 762.593 212.824 760.091 215.018 759.112C215.877 758.729 217.971 759.112 218.826 758.117C219.418 757.43 219.346 755.32 219.813 754.317C220.441 754.888 220.469 756.239 220.8 756.491C221.799 757.246 225.184 756.663 226.203 758.725C226.598 760.411 224.113 760.387 223.857 760.815C223.386 761.614 225.827 762.888 222.954 763.568L225.408 768.694L221.412 768.71C222.427 774.261 228.532 774.237 231.785 777.901C227.386 778.353 220.425 770.249 218.451 769.666C214.659 768.543 208.589 770.033 204.625 770.293L205.436 768.707H203.03C204.053 775.715 194.227 779.232 192.381 785.621C190.803 791.088 190.555 799.463 196.329 802.176C203.266 805.437 224.696 803.955 232.021 801.285C234.231 800.482 239.589 798.068 239.801 795.459C238.634 792.342 239.677 789.134 238.926 785.997C237.975 782.029 234.942 779.22 233.252 775.643C228.868 766.377 226.251 754.945 225.408 744.723L205.036 746.329L205.432 747.916C203.81 748.231 203.338 746.465 201.812 746.321C200.501 746.197 198.739 747.16 197.065 747.164C192.393 747.172 187.706 747.081 183.043 747.128C183.418 750.793 183.846 754.233 183.878 757.958C183.93 763.52 183.49 769.018 184.01 774.517C184.298 777.578 187.674 781.701 187.846 785.082C185.285 784.415 184.897 779.679 183.834 777.501C183.358 777.29 182.399 778.816 182.248 779.096C182.403 773.038 181.484 767.875 181.456 762.709C181.436 759.448 182.555 756.507 182.148 752.423C181.424 745.151 175.055 739.696 173.8 731.177C173.093 726.366 176.142 723.712 175.802 718.877C175.391 713.039 170.168 708.396 169.505 704.332C168.57 698.606 170.791 686.882 170.248 679.609C169.149 664.82 162.424 649.828 164.701 634.875C160.426 583.939 146.684 533.35 137.074 482.618C135.347 473.503 134.468 463.465 132.322 454.602C131.983 453.196 131.987 451.606 130.7 450.647C129.629 450.635 129.158 454.966 128.946 456.069C120.942 497.91 114.241 540.151 106.121 581.893C105.066 587.323 101.442 592.454 100.799 597.349C100.279 601.297 101.47 604.905 101.326 608.258C101.094 613.632 97.1743 619.682 96.7467 625.261C96.2792 631.354 97.8416 639.254 97.5699 646.063C97.0864 658.167 93.486 669.967 92.7508 682.003C92.0955 692.76 94.521 704.212 90.7328 714.35C89.9496 716.448 86.6011 721.483 86.4972 722.893C86.4252 723.876 87.8997 725.019 88.0276 726.737C88.627 734.997 78.9449 744.807 78.4374 753.242C78.1896 757.35 80.0238 760.039 80.0158 763.516C80.0158 766.077 78.7251 768.571 78.813 771.228C79.1127 780.363 86.4452 794.284 75.9599 799.879C76.1957 799.735 78.5173 795.659 78.769 795.092C80.9388 790.177 79.0168 783.575 78.3495 778.305L74.3695 783.891L78.3495 773.502C75.0528 775.663 75.3405 781.557 71.1808 782.7C74.6772 778.573 75.0208 774.984 76.3355 770.281C76.7431 768.818 78.1257 767.632 78.3455 765.829C78.9369 760.934 75.844 753.05 78.3814 747.52L77.5902 745.886C76.2915 745.294 74.913 745.522 73.5583 745.53C75.3205 744.959 80.1636 743.472 81.1066 742.289C83.0367 736.539 86.701 731.017 86.3413 724.751L79.6002 725.57L72.7632 724.755L82.3813 724.38C83.676 719.521 87.5081 714.378 88.3792 709.599C90.8048 696.288 87.2804 678.502 91.1244 664.497L91.9356 664.005C91.2283 672.9 90.0655 681.863 89.5061 690.746C88.8508 701.135 91.3722 710.342 85.5501 719.944L91.0685 708.292L90.3492 689.987L95.1683 652.453L94.3452 647.226L92.7348 663.486L91.9396 664.005C92.523 656.645 94.1973 648.437 94.3691 641.264C94.521 634.807 92.8946 628.417 93.546 622.06C94.0215 617.437 97.406 612.945 97.486 609.165C97.5659 605.445 92.3872 596.973 93.542 592.086C94.6928 591.899 94.6568 593.493 94.8886 594.316C95.7837 597.493 96.1353 600.845 97.1623 604.038C97.6458 605.541 98.6288 608.805 99.9195 609.661C99.9674 605.625 98.7727 602.328 99.2202 598.16C99.8156 592.57 103.512 587.399 104.519 581.889C106.88 568.994 107.811 555.504 110.317 542.533C110.573 541.222 110.856 539.88 111.116 538.537C116.75 509.51 125.126 480.408 128.63 450.934C128.97 448.077 129.413 447.426 129.565 446.291C131.004 435.642 128.199 424.593 127.863 414.3C127.384 399.69 128.982 383.846 127.935 369.477C127.827 367.999 127.675 366.556 126.988 365.226C119.651 365.973 117.338 363.919 113.789 358.049L94.3412 357.134L107.156 363.088L118.309 365.925C118.317 367.491 115.024 366.66 114.125 366.508C105.102 364.958 96.6228 360.031 88.3952 356.351C86.9167 356.674 86.1215 363.367 84.1635 365.154C80.8509 368.174 74.5853 367.323 70.4055 368.354C69.6823 376.438 64.4476 385.976 60.3838 393.101C57.5426 398.084 53.9743 402.711 50.7735 407.467C49.5947 406.855 50.9414 405.536 51.341 404.837C55.7005 397.129 69.6183 377.609 69.5864 369.521C69.5824 367.939 69.5105 368.234 67.972 368.31C65.9301 375.575 62.3458 382.46 58.7854 389.101C56.3399 393.665 51.265 399.351 49.9224 404.214C46.1822 417.756 47.6647 438.323 47.1812 452.221C44.5599 451.885 46.422 453.767 45.5708 455.41L64.7553 457.815L64.7713 455.422C59.8803 455.306 55.0532 454.399 50.3779 453.02C53.0592 453.2 67.4166 454.007 67.7762 456.592C66.1299 460.077 66.2458 464.672 66.3177 468.584C66.6614 486.858 68.3157 505.391 68.7912 523.716C68.943 529.558 68.5994 535.428 68.7712 541.27C68.6394 542.161 52.6956 541.822 50.7416 541.77C48.2281 541.706 45.431 539.524 44.7836 542.932C43.9525 547.332 46.4899 551.148 46.434 555.732C46.394 559.348 45.2592 563.667 44.7836 567.3C48.2561 564.406 50.1702 559.432 52.6277 555.576C52.8634 555.204 53.7665 552.998 54.3699 554.121C52.9034 560.239 46.7217 565.502 44.9994 571.124C42.0584 580.734 47.0693 590.992 43.9805 600.862L55.285 580.61L57.5546 579.683C53.9903 587.859 46.9335 596.158 43.8206 604.31C39.6649 615.199 37.587 636.022 38.3462 647.65C38.8737 655.698 41.8227 663.873 41.5669 671.993L39.9845 669.188L38.3862 661.608C39.529 675.094 30.3503 691.677 34.3383 704.404C35.609 708.46 38.0585 710.558 37.6149 715.549C37.2034 720.152 33.2914 720.823 32.3403 723.896C31.2255 727.508 32.4082 738.581 34.7459 741.558C37.9146 745.594 43.1133 744.135 47.1692 746.317C44.2082 745.95 40.6878 745.942 37.6389 745.586C36.3722 753.254 34.5221 762.805 31.1016 769.813C28.2964 775.556 21.0718 779.783 19.5893 786.273C17.1518 796.946 21.0159 799.351 30.3783 801.877C37.2753 803.735 58.218 805.833 63.5725 801.485C67.0689 798.648 66.9331 789.809 65.7263 785.705C64.5675 781.765 61.4866 779.923 59.177 777.07C57.7425 775.296 56.1281 771.308 54.6176 770.441C52.7435 769.366 42.5779 768.139 40.548 768.694C39.9646 768.854 39.3132 770.557 38.2063 771.308C35.4611 773.174 31.9687 775.304 28.8039 776.299C32.2284 772.631 37.2833 773.158 36.7878 767.096L42.3701 767.891L38.8297 765.598L33.5831 766.293L37.9866 761.522L36.7798 763.895C38.2463 763.923 39.9126 763.74 41.2872 763.244C43.7167 762.373 40.4481 761.814 45.5708 762.305C46.5419 763.316 48.1083 762.569 47.9644 763.895C46.0024 763.867 43.8166 764.818 43.9765 767.096C48.4999 767.584 53.0113 768.391 57.5586 768.699C58.154 768.738 59.8203 770.657 59.9482 767.1C59.8443 766.968 58.6975 767.66 58.3578 767.899V763.903C59.0651 764.051 60.0361 763.76 60.7554 763.903C60.8833 764.675 60.5316 765.626 60.8872 766.565C61.3508 767.788 64.2678 768.211 63.8083 770.577L59.161 772.686L60.7514 771.104L57.5666 770.297C57.1271 775.404 62.4976 778.001 65.103 781.534C65.5785 782.177 68.4675 787.248 68.5235 787.591C68.7233 788.806 67.3367 797.609 66.7653 799.079C63.6804 807.027 47.5528 805.977 40.48 805.353C33.4072 804.73 19.2816 802.176 17.5913 794.268C13.7393 794.053 17.5434 798.736 18.7661 799.895C25.5552 806.352 52.7915 808.718 61.4067 805.705C66.9171 803.779 66.7213 801.269 69.1588 796.67C71.0009 796.242 70.4975 798.38 70.2977 799.407C68.1399 810.652 44.6558 808.042 36.4921 806.936C29.0677 805.929 18.5943 804.386 15.6014 796.65C13.3197 816.034 38.1504 815.323 51.5528 814.228C60.9032 813.465 70.6293 810.884 71.2207 799.935C72.3396 799.459 75.3205 800.238 75.9399 799.855L75.9559 799.859ZM129.501 3.07043C108.075 2.55895 97.8975 23.034 100.327 42.2264C108.838 36.5043 119.424 34.5184 129.501 34.2387V3.07043ZM131.1 34.2387C136.238 34.7502 141.321 35.5732 146.28 37.0397C150.532 38.2945 154.752 41.3233 157.896 42.2104C159.579 42.686 159.075 41.2995 159.103 40.2086C159.211 36.1807 158.092 27.8492 157.077 23.8413C154.312 12.9044 142.62 2.87053 131.1 3.06633V34.2387ZM163.866 45.4273V32.2407C163.866 30.7902 162.424 24.7963 161.844 23.0741C160.306 18.4987 155.97 13.316 152.254 10.2871C151.367 9.56384 149.073 7.34208 147.875 8.26513C154.668 12.6047 158.943 21.172 159.771 29.1439C160.358 34.7941 157.421 43.4933 163.866 45.4273ZM95.1364 45.4273C100.831 42.1826 98.6168 34.5224 99.2322 29.1439C100.111 21.4397 103.54 14.0392 109.506 9.05632C103.967 11.354 98.6728 18.8863 96.9585 24.4726C96.471 26.055 95.1364 31.7852 95.1364 33.0399V45.4273ZM160.67 51.8208C160.626 51.8447 160.614 52.576 160.046 52.628C156.945 52.9197 146.596 46.4383 142.256 45.0597C134.4 42.5622 127.136 42.2145 119.108 44.2205C113.689 45.5751 102.98 52.8877 98.9045 51.669C97.7137 51.3133 96.9345 49.2074 95.9315 49.8308C98.6208 58.5579 107.767 49.8788 112.978 47.681C123.587 43.2056 130.756 42.7419 141.689 46.4302C147.907 48.528 163.063 60.4159 163.862 49.4271C162.656 49.2073 163.055 50.7419 162.236 51.3853C161.649 51.8488 160.989 51.6609 160.674 51.8208L162.947 47.5411C149.105 35.7571 127.639 33.056 110.497 38.8061C107.823 39.7012 96.7068 44.5002 96.7147 47.4252C99.4639 55.0335 107.156 47.3694 112.179 45.2835C122.952 40.808 132.195 39.9527 143.311 44.0086C146.456 45.1554 158.792 52.536 160.674 51.8208H160.67ZM160.666 55.8206C154.072 55.453 148.658 50.6259 142.26 48.2523C130.664 43.9487 123.675 44.6721 112.431 49.5391C107.947 51.4811 104.007 55.3131 99.1323 55.0214C97.6538 56.416 102.301 83.3087 103.364 87.1527C106.421 98.2135 121.002 111.296 133.01 110.077C140.706 109.294 152.878 97.3543 155.459 90.1696C156.71 86.6851 161.928 57.0274 160.67 55.8286L160.666 55.8206ZM97.1263 54.2343C96.3351 54.7898 97.5579 55.3332 97.9415 55.8007C98.7367 55.2772 97.5699 54.7418 97.1263 54.2343ZM99.9235 77.3947C98.2052 72.236 98.8526 64.2722 97.3621 59.5849C96.9825 58.3941 95.7357 57.1712 94.3452 57.419C91.6 59.4369 96.0794 75.7484 99.9235 77.3947ZM159.878 77.3947C163.407 76.124 167.846 57.4111 164.266 57.4311C159.894 62.3341 161.557 71.0971 159.878 77.3947ZM153.469 97.3744C147.651 101.814 143.667 108.811 136.246 110.913C123.064 114.649 114.956 105.378 106.333 97.3744C107.216 101.918 105.33 107.2 105.45 111.364C105.706 120.211 122.52 131.739 127.451 138.984C128.954 141.19 130.744 148.163 131.112 148.522C132.454 149.833 132.454 148.119 132.774 147.403C133.881 144.942 134.272 141.761 135.887 139.328C140.055 133.046 154.752 119.444 154.939 112.187C155.051 107.74 152.638 102.145 153.469 97.3783V97.3744ZM124.706 138.125C118.564 131.747 104.371 120.163 103.488 111.004C103.24 108.419 104.791 106.253 104.331 103.772C102.149 107.068 94.481 119.244 94.4211 122.533C94.3691 125.262 99.2042 135.923 100.327 139.735C100.723 141.086 101.881 149.469 103.12 148.518C104.962 143.851 109.026 136.998 113.262 134.277C113.937 133.841 115.36 132.598 115.915 133.733C109.518 138.077 106.828 145.937 101.929 151.715L93.1464 125.366L43.2092 148.131C58.6335 137.961 76.8989 132.559 93.538 124.515L92.7308 121.354C78.773 129.114 62.6375 134.001 48.7676 141.717C34.5621 149.617 32.8997 156.422 29.3514 171.85C21.823 204.553 19.5294 235.026 9.85123 268.232C9.22387 270.382 7.5256 272.508 7.25387 274.466C6.7344 278.234 8.90419 281.507 8.82827 285.191C23.3735 279.393 40.3282 281.399 52.3639 291.585C55.6286 288.995 54.5577 285.007 55.5247 281.942C57.3588 276.14 57.7025 280.448 57.5387 272.036C57.3029 260.141 56.4757 248.664 55.9443 236.868C55.8723 235.234 55.201 232.597 57.5706 233.248C58.9812 246.151 58.6775 259.062 59.181 271.996C59.3808 277.127 60.8433 283.744 60.8433 288.783C60.8433 295.544 55.8084 301.862 55.9523 307.932C56.0442 311.836 58.8733 316.531 59.149 320.599C66.8612 324.699 83.5961 320.751 88.2833 329.206C89.554 331.496 88.9547 336.303 92.7388 335.544L91.1404 338.729L113.829 339.584C115.284 333.166 119.524 332.443 125.497 332.335L125.473 172.873C129.006 163.255 124.698 159.779 121.941 151.695C119.851 145.569 120.055 138.824 116.73 133.737L124.706 138.133V138.125ZM159.858 148.518L166.843 121.873C162.791 116.195 161.309 108.627 156.262 103.788C160.086 115.5 149.197 125.837 142.284 134.133C146.76 132.578 148.482 134.337 151.787 137.026L159.858 148.522V148.518ZM221.408 149.321C214.503 141.378 183.271 127.336 172.434 123.572C171.159 123.128 170.056 122.724 168.665 122.952C168.322 124.595 169.481 124.806 170.504 125.502C183.203 134.081 201.988 136.838 214.199 146.532L168.258 125.366L160.662 151.719C159.711 152.682 150.66 135.555 146.368 134.516C145.553 134.321 144.718 134.792 143.963 135.024C144.194 144.898 140.262 154.113 137.557 163.375L137.485 332.339C141.785 332.331 145.181 331.684 148.993 334.053C150.1 334.741 149.777 336.195 151.447 336.399C158.484 337.254 165.373 335.224 172.262 334.745C180.541 334.165 189.045 334.449 197.272 332.982C198.555 332.167 204.641 310.01 204.685 307.161C204.749 302.765 202.363 297.147 201.66 292.548C197.956 268.304 203.486 247.861 204.657 224.085C205.512 206.703 204.397 188.286 203.834 170.911L205.328 176.198L207.014 192.477C211.246 178.44 213.788 163.135 220.609 150.125L208.253 192.545C204.197 200.361 206.715 213.596 206.255 223.282C205.8 232.864 203.774 242.486 203.034 252.029C202.699 256.384 201.6 268.408 202.263 271.965C202.619 273.867 204.653 275.409 205.096 277.199C205.476 278.73 204.677 279.912 204.996 281.199C205.268 282.29 207.33 287.305 208.301 287.525C218.139 282.406 228.213 281.523 238.99 283.984C242.902 284.879 246.318 286.861 250.174 287.577C248.36 284.28 251.781 279.489 251.569 276.919C251.305 273.719 246.722 261.959 245.611 257.387C238.574 228.441 237.328 199.115 230.746 170.756C228.808 162.4 227.134 155.915 221.408 149.325V149.321ZM143.084 135.743H141.901L140.706 136.942L143.084 136.526V135.743ZM139.491 137.334V138.133C140.011 137.865 140.011 137.601 139.491 137.334ZM127.891 159.711C127.995 156.33 131.539 153.245 130.764 150.125C130.588 149.421 126.704 141.254 126.345 140.886C125.621 140.147 120.283 137.769 119.911 138.137C122.141 145.214 122.636 154.081 127.891 159.707V159.711ZM135.895 283.585C126.129 289.898 127.907 275.397 133.813 279.645C134.96 280.468 134.652 282.034 135.895 281.986V166.904C134.141 167.619 134.412 170.716 131.523 170.092C129.797 169.585 129.385 164.658 132.318 164.446C134.352 164.298 134.864 166.252 136.69 166.1C136.798 165.013 136.139 163.847 136.33 162.804C137.821 154.568 141.805 146.496 143.088 138.145C135.228 138.241 135.14 146.56 132.854 152.278C131.763 155.004 129.785 157.505 128.926 160.338C126.98 166.772 127.248 185.68 127.068 193.644C126.017 239.825 127.935 286.162 127.1 332.347H135.899L135.887 321.954C130.229 327.324 126.8 317.726 132.334 317.126C135.267 316.811 134.129 319.005 135.895 319.556V283.585ZM133.497 166.912H131.903V168.502L133.493 166.912H133.497ZM203.014 275.597C200.169 274.945 201.796 278.734 201.432 280.384C204.333 280.827 203.542 277.155 203.014 275.597ZM57.5666 320.343C57.1111 316.159 54.242 311.36 54.3499 307.193C54.5617 298.953 62.3657 290.342 57.9702 281.179C56.9233 281.143 56.6076 288.12 56.0402 289.643C55.5647 290.925 53.8304 292.244 53.7905 292.767C53.7425 293.383 54.8774 294.454 55.0012 295.345C55.4328 298.474 52.5357 312.467 50.0303 314.018C48.8435 314.753 47.7486 314.761 46.426 314.797L44.7717 327.132L50.1542 321.33L57.5626 320.347L57.5666 320.343ZM133.493 281.191C128.554 280.344 132.498 284.652 133.493 283.581V281.191ZM203.814 291.572C205.756 287.68 206.115 284.116 202.235 281.191C202.263 283.417 202.071 285.663 202.323 287.888C202.415 288.719 202.635 291.636 203.814 291.572ZM47.2371 313.115C50.4379 315.32 53.7705 298.873 53.5667 296.843C52.6117 287.221 30.4423 283.065 22.7781 283.561C18.8381 283.816 6.50264 286.586 4.46871 290.018C3.13007 292.28 3.68151 301.047 4.02516 303.968C5.24392 314.321 10.5905 307.392 16.8121 305.562C27.4213 302.441 40.3522 303.852 47.2371 313.115ZM250.166 313.954C252.352 304.683 259.137 294.993 248.34 289.015C239.401 284.068 225.024 282.825 215.378 285.95C214.199 286.334 206.475 289.319 206.143 289.69C202.063 294.19 205.208 299.928 206.139 304.843C206.571 307.125 205.324 309.962 207.43 311.552C220.529 301.091 237.843 304.004 250.162 313.95L250.166 313.954ZM26.5742 445.656L31.5531 448.205C32.5161 447.985 33.2234 445.388 33.3992 444.429C34.1585 440.265 32.7879 413.736 31.3573 410.1C29.8269 406.204 24.9758 401.153 24.1846 397.293C22.5982 389.533 27.785 374.037 30.1825 366.093C35.4531 348.642 43.7167 331.963 45.2472 313.518C35.9207 302.338 19.2896 303.9 8.02909 311.368C5.05212 328.431 7.00613 345.885 6.45069 363.144C5.93921 378.996 5.15601 395.159 4.01318 411.055C3.48571 418.407 0.48477 430.036 2.38284 436.677C5.61155 447.989 11.4216 457.699 21.851 463.557C23.8849 464.7 26.8459 466.147 26.2705 462.375C25.7191 458.762 16.1848 452.88 15.2218 443.018C14.4306 434.918 17.4355 432.513 19.2097 425.456C19.4455 424.521 20.2646 425.089 20.8161 425.432C25.811 428.525 25.5992 440.373 26.5702 445.66L26.5742 445.656ZM241.899 456.724C247.257 451.242 252.144 435.418 251.765 427.846C250.934 411.123 248.141 394.316 247.745 377.521C247.317 359.411 249.959 340.091 248.568 322.353C247.765 312.1 244.848 310.697 235.166 307.784C227.406 305.45 220.009 305.706 212.809 309.782C210.615 311.025 212.413 311.976 210.319 312.695C212.257 331.164 219.338 348.195 224.201 365.901C226.415 373.957 231.873 390.108 229.659 397.732C228.249 402.592 222.571 407.866 221.596 413.644C220.688 419.019 221.632 426.143 221.396 431.826C221.28 434.659 218.083 446.866 221.903 448.161C223.302 448.636 226.247 447.454 227.058 446.283C230.047 441.971 226.119 425.864 234.986 425.036C235.889 432.964 239.881 434.583 238.758 443.598C237.683 452.261 234.135 453.544 229.871 459.481C228.281 461.695 225.943 466.055 230.77 464.384C232.656 463.733 240.42 458.235 241.899 456.724ZM220.601 458.602C220.389 454.762 222.682 451.821 225.388 449.408C213.987 450.311 219.45 436.98 219.841 430.267C220.285 422.679 218.255 417.42 221.02 409.872C222.555 405.684 227.286 400.605 228.225 397.097C229.939 390.68 225.364 376.59 223.578 369.725C218.782 351.292 210.799 333.654 209.288 314.449L205.508 313.19C204.129 318.097 202.927 323.084 201.464 327.975C201.024 329.438 199.538 331.376 199.386 332.295C199.234 333.214 200.605 334.317 200.673 335.887C200.785 338.377 200.909 353.753 200.397 354.536C200.245 354.768 199.494 354.708 199.122 354.784L199.039 356.299C199.922 356.407 200.889 356.758 201.448 357.461C205.872 363.036 208.545 383.391 210.079 391.211C210.439 393.037 211.853 394.124 212.169 395.387C215.769 409.788 214.463 432.113 216.713 447.721C216.98 449.587 217.308 452.093 217.795 453.831C218.079 454.834 219.538 458.103 220.601 458.606V458.602ZM133.493 319.552C133.034 319.092 131.116 320.215 131.116 320.747C131.116 322.961 134.7 320.759 133.493 319.552ZM73.5543 324.351C61.127 325.438 51.1971 313.902 45.8146 330.565C45.2152 332.423 43.5209 338.972 44.3481 340.331C45.2312 341.781 61.3867 343.943 62.4217 343.184C64.7193 337.833 64.9471 331.284 69.5225 327.104C70.937 325.81 72.923 325.754 73.5543 324.355V324.351ZM86.3453 329.138C83.8239 325.434 80.3434 325.342 76.3635 324.331C76.0438 328.667 82.2575 325.354 84.7469 329.138C79.6042 329.482 75.1647 325.37 70.3136 329.49C66.2138 332.97 68.028 339.46 68.004 343.891C67.988 346.8 67.3527 362.209 68.7153 363.152C73.906 364.075 85.8338 362.752 84.711 355.551L80.719 354.185C81.1386 349.925 79.6961 342.784 82.3534 339.528C83.4762 342.948 80.1037 352.814 83.1606 354.309C84.5431 354.984 93.3901 356.123 95.5479 356.303C101.993 356.838 108.671 356.047 115.116 357.106C112.519 354.656 115.967 343.148 113.57 341.478L82.3494 339.532C84.2275 337.226 86.5851 339.02 85.5501 333.941L88.7389 337.929C88.8947 334.908 88.0636 331.668 86.3453 329.142V329.138ZM44.7796 329.933V328.343H43.9964V329.933H44.7796ZM43.9805 333.13V331.54H43.1973V333.13H43.9805ZM149.473 346.72C148.958 342.696 151.427 335.847 146.324 334.293C143.143 333.326 126.704 333.526 122.672 333.893C120.223 334.117 118.137 334.457 116.806 336.819C115.036 339.967 115.608 357.337 117.314 360.902C118.249 362.856 119.887 363.275 121.893 363.515C125.086 363.891 143.427 364.035 145.729 363.343C149.081 362.337 149.013 355.196 149.473 352.311L147.219 353.246L147.115 360.57C146.676 362.456 121.817 362.54 119.643 361.166C117.669 359.915 117.729 339.712 119.064 337.478C120.854 334.481 132.474 335.384 136.326 335.492C138.037 335.54 139.511 336.259 141.09 336.331C142.568 336.399 144.318 335.136 145.773 335.584C148.202 336.335 146.68 343.232 147.051 345.374L149.473 346.712V346.72ZM43.1813 336.327V334.736H42.3981V336.327H43.1813ZM197.432 336.323C195.71 333.054 191.542 335.44 189.033 335.524C176.25 335.955 163.766 337.358 151.075 337.933L151.083 340.323L197.432 336.323ZM83.9478 361.913C80.0397 363.248 70.3256 367.539 67.1169 363.951C63.6325 360.051 66.3697 341.997 66.3577 336.335L63.4446 344.359L46.394 342.728C48.0803 349.214 43.9325 359.867 51.4249 363.663C58.0581 367.024 70.3136 366.92 77.2865 365.389C79.8279 364.83 82.1656 365.945 83.9518 361.913H83.9478ZM121.11 337.13C119.328 337.13 119.911 339.472 119.911 339.927V359.108C120.415 359.899 121.014 360.143 121.909 360.307C124.019 360.694 142.612 360.654 144.146 360.171C145.209 359.835 145.689 359.008 145.485 357.913H120.71L120.718 355.519L121.509 357.114H145.485C147.027 349.006 140.498 352.894 135.883 349.521L136.438 347.512L145.489 346.724V337.13H121.11ZM199.035 337.925L151.091 341.138C149.857 343.639 152.41 347.975 152.314 349.178C152.138 351.404 149.653 354.372 150.28 357.106C155.039 357.709 159.639 356.518 164.23 356.271C165.309 356.215 169.225 355.695 169.461 357.102C164.506 358.005 158.887 357.406 154.096 358.125C152.346 358.389 149.173 358.728 149.489 361.102L197.436 356.307C197.508 354.796 197.816 354.668 196.221 354.684C191.918 354.724 186.284 356.131 181.884 356.347C179.347 356.47 176.406 356.418 173.852 356.315C172.881 356.275 170.879 356.918 171.067 355.523C180.154 354.992 189.42 355.104 198.247 352.734L199.039 337.929L199.035 337.925ZM150.28 349.126C147.475 348.93 141.169 346.269 140.694 350.712C143.511 350.229 146.504 351.783 149.137 350.82C150.276 350.405 150.528 351.068 150.28 349.126ZM85.9457 356.311V357.11C86.4652 356.842 86.4652 356.578 85.9457 356.311ZM187.043 362.704C194.979 373.018 197.768 389.189 210.211 396.27C207.422 389.709 201.708 384.905 197.896 378.624C194.667 373.297 192.925 366.828 188.657 362.297C194.291 365.861 196.301 374.08 199.97 379.747C201.992 382.872 204.937 386.688 207.814 389.077C206.391 378.512 204.101 367.799 200.229 357.849C195.374 356.315 191.127 359 186.244 358.712C186.132 360.119 186.739 361.385 187.043 362.704C186.427 361.905 185.201 361.609 185.332 359.631C184.421 358.772 163.431 361.489 160.454 362.089C157.984 362.588 155.143 364.638 152.21 365.034C149.001 365.465 143.495 363.543 143.072 367.495L141.445 367.116C140.858 366.62 140.798 365.102 140.69 365.102H129.501L131.108 366.3L128.646 367.14L129.501 421.049C133.665 421.908 139.635 418.02 140.522 414.084C141.058 411.702 141.381 404.478 141.521 401.497C141.993 391.487 140.274 378.995 141.485 369.481C141.673 368.023 141.213 368.191 143.084 368.298V412.653C143.084 417.6 135.16 422.287 130.64 422.587C129.761 423.798 130.245 446.347 131.2 447.354L133.501 447.422C132.231 452.137 134.808 458.143 135.671 463.222C142.224 501.742 149.857 540.415 157.689 578.664C159.055 585.345 163.639 597.325 163.806 602.983C163.886 605.625 162.763 607.691 163.123 610.775C163.527 614.24 165.852 618.052 166.252 622.048C167.111 630.655 165.577 640.469 166.272 649.2C166.763 655.39 169.289 661.715 169.465 667.989C170.839 668.185 170.308 666.103 170.244 665.216C169.924 660.848 168.29 656.009 167.87 651.598C166.959 641.98 168.713 631.534 167.85 622.847C167.451 618.835 165.201 615.139 164.729 611.583C164.23 607.802 165.001 603.611 164.578 599.747C162.672 582.44 155.627 559.619 152.122 541.874C146.5 513.379 140.942 484.756 135.899 456.213L137.257 458.431C142.053 483.289 146.424 508.248 151.327 533.079C152.786 540.471 154.959 547.772 156.422 555.156C160.078 573.569 163.407 591.487 165.549 609.964C166.484 618.04 168.566 620.41 168.622 630C168.745 650.795 171.335 668.816 175.119 689.175L173.461 705.551C172.11 698.234 174.084 691.042 173.441 683.585L170.264 668.792C170.12 672.664 171.674 676.536 171.886 680.344C172.266 687.213 170.228 697.939 171.111 703.505C171.87 708.296 177.676 712.879 177.46 718.338C178.815 718.306 179.167 718.857 178.895 717.307C178.336 714.13 176.785 711.573 175.447 708.76C179.966 712.827 180.274 717.051 179.051 722.725L177.46 722.326L178.332 725.806C178.2 726.837 174.647 726.23 175.195 730.509C175.315 731.448 178.635 740.839 179.159 741.806C179.862 743.109 181.932 745.198 183.466 745.49C191.534 747.025 205.412 744.819 213.823 743.916C217.112 743.564 224.069 744.651 226.594 742.301C226.99 741.934 229.4 736.643 229.4 736.315V723.529C229.4 722.705 227.537 722.29 226.646 722.294C221.699 722.314 210.862 726.773 206.691 723.864C201.001 719.896 216.489 713.635 219.809 713.547C221.448 714.781 204.729 718.937 207.022 723.121C213.915 724.831 220.916 721.866 227.829 721.155C229.056 720.188 228.293 720.264 227.937 719.417C227.222 717.71 225.44 716.096 225.492 713.922C225.544 711.749 228.485 707.377 229.184 704.928C232.484 693.387 224.828 684.125 223.821 673.168C221.727 650.419 226.539 628.11 219.026 605.237C216.333 597.037 211.218 589.145 209.412 580.486L212.509 585.381C214.926 590.572 216.573 596.23 218.794 601.473C219.214 602.46 219.226 603.83 220.605 604.05C218.611 595.511 219.034 586.772 218.978 578.045C218.958 574.68 219.857 567.779 219.022 564.658C218.898 564.191 217.016 563.34 216.153 561.757C214.711 559.108 212.113 552.223 211.814 549.298C211.638 547.572 212.189 547.164 212.82 549.094L218.207 561.689C218.874 558.748 216.269 553.394 216.585 551.012C216.657 550.485 217.991 550.625 218.187 549.941C218.459 548.99 219.338 541.238 219.018 540.915L194.987 541.366C192.945 539.943 194.999 533.314 195.071 530.961C195.786 507.672 195.846 484.044 197.388 461.42C197.528 459.342 193.42 454.602 197.836 453.807C200.621 453.308 214.99 453.855 215.71 450.954L210.619 398.671C200.901 391.491 189.72 374.296 187.047 362.704H187.043ZM155.071 362.712C152.19 363.152 149.177 360.814 147.883 364.294C149.833 364.187 153.857 364.654 155.071 362.712ZM66.3657 367.503L55.0812 367.168L50.3859 400.262L60.6515 382.972C62.1779 377.669 66.3417 373.221 66.3617 367.503H66.3657ZM237.284 440.92C238.45 435.837 234.89 431.77 233 427.446C229.979 428.869 230.151 440.173 229.408 443.426L237.284 440.92ZM24.804 443.418C24.5363 442.263 23.3175 425.636 20.0249 428.241C18.7142 432.553 15.8172 435.582 16.7842 440.501L24.804 443.418ZM26.4024 449.012C26.8539 443.701 20.8001 442.97 16.8201 442.627C15.8331 445.032 18.8581 447.322 18.9619 447.59C19.1538 448.089 18.4225 449.112 18.9779 450.363C20.8081 454.475 27.1336 455.278 31.1975 455.406C30.7499 449.751 24.0687 450.515 20.0169 449.008H26.4024V449.012ZM234.994 448.217C235.254 447.45 237.819 442.954 237.391 442.631C233.084 442.894 227.49 443.554 227.805 449.012C229.116 448.932 230.494 449.148 231.797 449.016C228.652 449.883 223.206 451.582 222.219 455.026C221.687 456.876 223.062 456.045 223.889 455.901C226.035 455.526 227.669 454.467 230.199 454.61C230.155 454.63 230.259 455.178 229.667 455.406C228.125 456.005 220.84 456.565 221.412 458.994C225.975 463.665 228.497 459.05 231.793 455.797C232.085 454.115 231.366 454.674 230.203 454.61C230.235 454.594 230.135 454.095 230.355 453.971C232.808 452.596 233.615 454.766 235.461 449.771C235.817 448.812 234.97 448.293 234.998 448.217H234.994ZM220.609 478.586H209.02C208.297 478.586 206.139 480.108 204.629 479.381V477.787H219.41C222.607 475.977 218.307 456.972 217.336 456.277L201.424 457.807L204.617 476.984L199.83 457.012C203.502 457.064 207.586 456.676 211.178 455.969C212.92 455.625 215.837 455.721 216.613 453.819L198.763 454.574L197.668 457.276L203.138 480.868C208.137 480.104 215.254 480.908 219.853 479.945C221.256 479.649 220.964 478.874 220.609 478.586ZM31.9967 457.02L22.4264 455.002C23.9649 455.877 24.8639 458.67 25.9468 459.462C28.7879 461.535 33.659 459.545 31.9967 457.02ZM59.173 475.389C58.9372 476.109 59.5326 477.663 58.8253 478.618C57.3269 480.64 44.6398 477.887 41.5949 477.791C41.2073 480.252 42.2262 479.066 43.5929 479.357C47.381 480.168 57.4667 481.935 60.5436 479.957C62.8652 478.47 62.9212 470.059 63.3887 467.222C63.8602 464.381 64.8592 462.255 65.5185 459.749C66.1779 457.244 63.4926 459.47 63.1689 459.406C62.3657 459.25 60.9632 458.251 59.3728 458.015C54.5697 457.308 49.5987 456.98 44.8476 456.265L41.9266 476.248L57.1231 478.49C57.6346 478.35 59.0651 475.885 59.173 475.389ZM199.035 539.328L197.832 465.791L195.023 538.913L199.035 539.328ZM63.9681 469.395C63.4366 474.015 64.3557 479.457 63.9681 484.18L63.1649 479.389C60.6435 478.646 62.0181 481.423 60.8353 482.226C58.8693 483.561 47.1892 480.868 43.9885 480.979C40.548 499.469 41.2832 518.206 43.2932 536.819C44.0604 538.105 59.6405 538.221 62.3577 537.718L63.133 502.13L64.7553 485.783L63.9641 539.324H48.38C47.8485 539.324 44.3321 537.103 43.9925 539.312C47.1892 540.919 67.3726 541.985 68.012 539.632L65.5585 466.602C64.7113 466.302 64.0041 469.072 63.9681 469.395ZM201.488 482.526L199.035 476.188C200.301 486.15 199.566 496.164 199.794 506.19C199.838 508.08 200.625 509.83 200.657 511.72C200.817 520.507 201.076 529.934 199.826 538.521L219.27 537.762C220.117 537.566 220.421 535.656 220.517 534.869C221.895 523.708 221.991 507.84 221.432 496.536C221.304 493.962 220.633 484.492 219.881 482.902C219.638 482.39 219.55 481.695 219.034 481.355C216.725 479.841 204.972 482.762 201.484 482.526H201.488ZM215.414 539.324C210.687 539.76 205.42 539.005 200.629 539.324V540.123H219.01V538.529C217.612 537.941 216.177 539.252 215.414 539.324ZM95.1284 630.427C94.1494 623.323 97.9455 617.201 99.1243 610.456L95.7877 617.097C94.3412 620.521 94.1893 623.966 94.3412 627.646C94.3811 628.617 93.7338 630.615 95.1284 630.427ZM95.9355 644.817V631.231H95.1364V644.817H95.9355ZM44.7876 763.104C43.7847 762.573 42.0025 764.383 42.3901 764.687C43.3931 765.218 45.1752 763.408 44.7876 763.104ZM36.3962 764.695V765.494C36.9157 765.226 36.9157 764.962 36.3962 764.695ZM198.631 767.891V768.691C199.15 768.423 199.15 768.159 198.631 767.891ZM62.3657 769.498H59.9762V770.281H62.3657V769.498ZM187.85 800.662C187.059 811.575 199.582 814.324 208.233 815.031C220.9 816.066 244.185 816.31 242.978 798.26C240.964 799.571 239.597 801.481 237.507 802.772C228.141 808.55 199.254 810.108 190.255 803.439C188.925 802.456 189.153 800.814 187.85 800.662Z" fill="#595A51"/>
<path d="M57.5743 768.691C57.4464 767.787 58.2216 767.999 58.3735 767.891L57.5743 768.691Z" fill="#595A51"/>
<path d="M73.5579 745.514C71.6478 746.133 70.8566 745.986 69.562 746.313C70.5889 746.193 71.4201 745.526 73.5579 745.514Z" fill="#595A51"/>
<path d="M213.415 758.301C209.272 757.546 206.986 756.007 203.03 758.313L206.214 760.691C204.76 761.574 203.038 760.535 201.975 760.691C201.707 760.731 199.293 762.109 197.415 762.797C196.66 763.072 194.878 765.761 193.439 764.69C193.28 764.571 192.696 762.269 193 761.526C193.847 759.46 198.123 758.513 198.287 757.774C198.143 756.399 198.067 753.47 197.463 752.419C196.8 751.268 194.023 753.094 195.034 748.711L206.49 754.924C207.417 753.574 218.59 751.18 217.407 750.313L214.214 749.514C218.957 751.184 219.992 743.109 222.01 750.597C221.343 752.275 220.636 752.515 219.805 754.301C215.992 750.837 208.98 756.279 209.415 756.691L213.411 758.297L213.415 758.301ZM204.62 756.695L199.034 752.711L199.833 758.305L204.62 756.695ZM196.628 762.293L197.04 759.915L195.038 760.703V762.293H196.628Z" fill="#595A51"/>
<path d="M234.993 448.217C234.882 449.703 232.844 448.724 231.797 449.016C232.308 448.964 233.711 447.638 234.993 448.217Z" fill="#595A51"/>
<path d="M65.566 747.112C61.626 747.86 57.762 749.462 53.5782 748.719C53.3624 748.867 54.1816 749.834 54.3774 750.309C51.816 749.654 49.4584 747.976 47.1887 749.918C45.2627 751.616 48.9549 752.899 47.1847 755.1L55.1766 752.699C55.3644 751.744 54.6931 751.08 54.3774 750.309C59.5721 751.636 60.7709 753.115 66.3572 749.506L67.572 754.305L63.9716 754.297L65.1544 752.695C63.7079 752.028 61.7619 754.281 61.5701 754.305C61.2904 754.341 59.6361 753.33 58.0816 753.53C55.5522 753.854 52.9748 755.584 50.3815 755.915C49.6782 758.221 52.2875 757.258 52.775 759.1C50.9209 758.893 46.3136 756.519 45.5824 755.104C45.3506 754.661 45.8301 752.939 45.5824 752.707C44.983 752.147 42.8012 754.197 41.97 752.711C41.4106 742.957 45.4945 751.42 48.7791 747.12C47.9 747.34 47.5843 746.529 47.1847 746.313C54.5213 747.224 57.8459 748.012 65.566 747.112Z" fill="#595A51"/>
<path d="M216.613 664.804C215.258 669.623 213.919 674.291 211.957 678.922C210.127 683.242 201.696 696.372 201.764 699.565C201.784 700.452 202.851 702.586 203.602 703.197L219.01 707.94C213.54 707.369 200.849 706.782 200.577 699.537L216.613 664.8V664.804Z" fill="#595A51"/>
<path d="M182.239 451.426L177.46 451.006L143.091 440.233C156.461 442.639 169.376 447.238 182.243 451.422L182.239 451.426Z" fill="#595A51"/>
<path d="M179.854 726.33L194.523 719.037L196.433 716.332L192.405 712.584L179.854 707.165C184.209 707.345 198.81 712.34 197.316 717.77C196.301 721.467 183.506 725.067 179.854 726.33Z" fill="#595A51"/>
<path d="M157.464 484.98L153.632 480.428L139.898 455.41C143.562 459.018 146.204 464.005 148.817 468.46C151.926 473.751 154.863 479.417 157.464 484.98Z" fill="#595A51"/>
<path d="M169.448 602.46L167.874 602.072C172.013 594.248 171.538 584.566 174.139 576.37C174.475 575.307 174.415 573.937 175.845 573.689L169.448 602.456V602.46Z" fill="#595A51"/>
<path d="M140.282 445.835L167.047 465.407C161.377 462.718 155.902 458.998 150.827 455.262C147.275 452.648 142.524 449.528 140.282 445.835Z" fill="#595A51"/>
<path d="M179.45 723.936C179.969 724.204 179.969 724.468 179.45 724.735V723.936Z" fill="#595A51"/>
<path d="M183.047 600.862C181.6 602.264 187.89 607.782 189.064 608.829C193.184 612.506 199.066 615.043 201.835 620.026C194.655 614.544 186.387 609.76 181.528 601.932C181.161 597.893 194.267 599.771 196.825 600.27C201.64 601.205 208.269 603.499 210.626 608.038C207.29 605.792 199.246 600.862 195.434 600.862H183.047Z" fill="#595A51"/>
<path d="M42.6455 708.196C42.0541 708.891 41.6825 709.703 41.7264 710.638C42.4177 713.898 58.7731 719.113 60.827 721.878C66.9288 730.094 44.7593 726.186 41.5946 724.727C41.4148 723.265 43.2968 724.036 44.1679 724.152C48.9471 724.775 58.4134 729.179 60.5792 723.525C60.1117 720.464 38.3099 714.09 40.3598 709.539C44.5436 704.352 49.5704 701.675 56.3675 701.507C59.4564 701.431 62.0138 702.478 65.1306 702.37C66.8608 702.31 74.6609 701.039 75.1324 699.501C75.8996 697.016 64.6271 688.448 62.3894 685.955C55.7322 678.546 49.3387 667.773 49.1788 657.608C52.1718 665.104 54.0739 671.693 58.6692 678.486C61.2106 682.242 76.9905 697.651 76.6429 699.453C75.6319 704.7 56.1318 702.618 51.7722 703.349C49.5505 703.721 44.0561 706.538 42.6495 708.196H42.6455Z" fill="#595A51"/>
<path d="M111.911 532.128L111.216 529.434L123.131 463.805C123.087 461.939 123.083 461.719 122.116 463.593C118.852 469.947 116.33 477.743 112.602 483.661C112.091 484.472 110.952 486.126 111.132 483.793L124.698 456.209C122.748 481.803 115.735 506.769 111.911 532.123V532.128ZM123.507 461.004V461.803C124.027 461.535 124.027 461.272 123.507 461.004Z" fill="#595A51"/>
<path d="M77.5498 602.464C80.0313 604.846 62.0257 622.687 59.9917 625.257C59.0407 626.46 57.5902 628.042 57.5782 629.628C58.5132 630.491 78.7846 622.148 82.345 624.434L60.1755 630.256C54.9489 631.143 55.8679 628.929 58.0217 625.684C61.1106 621.033 65.9616 617.389 69.538 613.225C70.6968 611.878 77.0184 604.354 75.9475 603.259L55.5682 611.243C55.0168 611.419 54.9848 610.404 55.1806 610.06C55.9998 608.61 74.413 601.125 77.5498 602.46V602.464Z" fill="#595A51"/>
<path d="M78.357 463.393C78.377 462.259 80.6307 461.819 81.5777 461.436C95.028 455.973 109.214 451.897 122.288 445.412C108.99 454.063 93.3497 458.514 78.353 463.393H78.357Z" fill="#595A51"/>
<path d="M116.71 439.434L108.314 441.815L79.1559 442.615C78.9681 441.22 80.9701 441.863 81.9411 441.823C93.5453 441.344 105.189 441.136 116.71 439.434Z" fill="#595A51"/>
<path d="M110.72 532.931C111.24 533.198 111.24 533.462 110.72 533.73V532.931Z" fill="#595A51"/>
<path d="M51.1725 210.06L49.3624 207.482L41.5983 185.289C42.2336 199.406 47.5162 213.164 50.0257 226.802C50.1775 227.634 51.0806 229.42 49.5901 229.236C45.0827 211.702 39.4125 194.048 39.9999 175.695C41.5783 176.018 41.3705 177.325 41.5863 178.496C43.5882 189.253 48.2595 199.466 51.1725 210.06Z" fill="#595A51"/>
<path d="M60.7629 234.83L56.0797 215.949C54.8929 201.664 57.2465 187.706 61.1705 174.088C62.3293 174.092 57.8938 193.508 57.6741 195.375C56.0477 209.204 58.5412 221.272 60.7589 234.83H60.7629Z" fill="#595A51"/>
<path d="M24.0121 247.625C21.3188 255.553 41.3144 271.081 39.4643 276.188C37.4064 281.866 18.8853 269.371 14.4258 274.794C14.3099 271.281 21.131 272.364 23.2488 272.76C27.8561 273.615 34.2976 278.578 38.3814 275.149C39.3365 271.889 22.2099 257.819 23.1529 248.796C23.2808 247.581 23.2648 246.79 24.4077 246.039C31.6483 253.467 37.3505 262.466 45.7979 268.596C48.7748 270.458 50.1774 267.561 50.2334 264.828C50.3812 257.367 45.7899 246.842 46.3933 238.834C47.588 238.806 47.5641 241.679 47.7359 242.674C48.5591 247.389 51.7678 262.77 51.0166 266.226C49.4981 273.215 43.7599 268.728 40.4154 265.979C35.2326 261.719 30.7692 254.734 26.5854 249.439C25.8302 248.48 25.6744 247.262 24.0121 247.625Z" fill="#595A51"/>
<path d="M55.1764 197.265C52.9067 197.68 53.8618 196.725 53.3743 195.514C47.776 181.557 44.811 165.077 39.2007 150.92C41.0029 151.995 41.6742 155 42.4014 156.902C47.4523 170.052 50.5851 183.962 55.1764 197.265Z" fill="#595A51"/>
<path d="M105.518 329.949C105.706 331.416 103.835 330.649 103.096 330.373C100.842 329.534 97.2022 327.116 94.8886 325.79C86.4252 320.931 78.2375 315.336 70.3775 309.55C82.3373 315.684 93.5499 323.648 105.518 329.949Z" fill="#595A51"/>
<path d="M80.7425 287.581C79.0962 286.322 77.5697 283.569 76.6107 281.731C72.2391 273.347 68.3951 264.36 64.7707 255.621C65.9935 256.065 66.9285 258.43 67.5719 259.601C72.5268 268.604 76.6906 278.154 80.7385 287.585L80.7425 287.581Z" fill="#595A51"/>
<path d="M99.5316 337.13C98.4048 337.03 95.9593 335.875 94.3289 335.931L99.5316 336.331H112.319C112.53 336.331 113.126 337.25 113.501 337.538L112.319 337.13C108.155 336.866 103.635 337.498 99.5316 337.13Z" fill="#595A51"/>
<path d="M195.042 252.424C196.497 252.225 195.706 254.099 195.486 254.866C194.363 258.786 191.858 264.057 190.123 267.889C185.896 277.235 180.533 287.229 174.643 295.556C180.889 280.939 190.055 267.617 195.038 252.421L195.042 252.424Z" fill="#595A51"/>
<path d="M190.239 313.962C178.855 322.829 163.81 326.813 150.28 331.528C150.488 330.141 151.898 330.165 152.849 329.71C160.026 326.277 168.393 323.896 175.826 320.719C180.729 318.625 185.404 316.163 190.235 313.958L190.239 313.962Z" fill="#595A51"/>
<path d="M210.207 227.638C208.721 227.821 209.576 226.011 209.771 225.204C213.012 211.754 218.551 198.595 219.002 184.49L211.386 205.232L209.408 208.05C213.036 197.7 216.425 187.311 219.785 176.869C220.121 175.822 219.805 174.376 221.4 174.096C220.632 192.505 216.285 210.359 210.211 227.634L210.207 227.638Z" fill="#595A51"/>
<path d="M208.716 268.296C209.403 268.728 211.15 268.46 212.005 268.2C215.289 267.201 226.506 254.906 229.806 251.629C231.733 249.719 231.868 246.794 235.784 247.617C236.616 259.289 223.049 265.399 219.002 275.173C219.633 278.478 235.529 273.127 238.526 273.251C240.448 273.335 244 274.726 243.772 277.187C238.094 271.389 228.52 277.946 221.635 277.735C211.449 277.419 225.287 265.271 226.973 263.177C228.708 261.028 237.147 250.882 234.981 248.416C233.579 248.133 233.007 249.136 232.176 249.999C225.455 256.96 220.02 266.238 210.454 269.835C205.24 268.005 206.642 262.894 207.249 258.634C207.969 253.571 209.679 245.903 211.245 241.052C211.517 240.217 211.445 238.638 212.596 238.83C212.428 243.278 205.331 266.186 208.708 268.292L208.716 268.296Z" fill="#595A51"/>
<path d="M209.02 228.441C209.539 228.709 209.539 228.972 209.02 229.24V228.441Z" fill="#595A51"/>
<path d="M213.411 748.719H210.223V749.502H213.411V748.719Z" fill="#595A51"/>
<path d="M208.616 747.92H206.227V748.703H208.616V747.92Z" fill="#595A51"/>
<path d="M129.701 240.636C132.562 237.831 136.981 241.659 134.368 244.896C131.403 248.568 126.988 243.298 129.701 240.636ZM133.493 242.031H131.103C131.115 244.96 133.481 244.96 133.493 242.031Z" fill="#595A51"/>
<path d="M134.983 205.153C133.928 206.803 130.18 206.232 129.517 203.207C128.118 196.849 137.976 200.461 134.983 205.153ZM133.493 202.072H131.103V203.662H133.493V202.072Z" fill="#595A51"/>
<path d="M147.083 111.768C144.809 118.377 143.75 126.972 138.3 131.739C138.643 129.645 140.234 128.215 141.077 126.133C142.735 122.045 143.646 117.61 145.281 113.518C145.764 112.303 144.813 111.352 147.083 111.768Z" fill="#595A51"/>
<path d="M122.3 130.94C117.98 125.997 115.639 118.892 114.324 112.563L122.3 130.94Z" fill="#595A51"/>
<path d="M242.178 302.777C242.362 304.264 240.552 303.408 239.745 303.213C235.505 302.19 230.195 299.624 225.759 299.544C221.052 299.461 216.325 301.558 211.805 302.366C221.188 296.368 232.496 298.905 242.178 302.777Z" fill="#595A51"/>
<path d="M218.214 289.97C218.474 288.859 222.646 288.344 223.445 288.352C229.059 288.396 237.97 290.61 242.17 294.382C234.334 291.629 226.762 288.895 218.214 289.97Z" fill="#595A51"/>
<path d="M227.797 293.183C227.085 294.609 223.945 293.886 222.166 294.338C218.818 295.185 215.909 297.067 212.616 297.962C216.408 293.918 222.414 292.663 227.797 293.183Z" fill="#595A51"/>
<path d="M40.7833 290.789L26.8175 289.994L15.2253 293.179C14.8257 291.085 15.6249 291.772 16.8117 291.213C24.2921 287.692 33.235 287.481 40.7873 290.789H40.7833Z" fill="#595A51"/>
<path d="M16.0205 301.159C16.7238 299.692 20.6678 299.001 22.0943 298.853C29.5227 298.098 39.117 298.526 44.7672 303.968C35.4927 299.073 26.1342 298.39 16.0165 301.155L16.0205 301.159Z" fill="#595A51"/>
<path d="M43.9799 297.187L43.5923 298.765L37.5864 295.181L28.0082 292.384C33.8622 291.972 39.005 294.665 43.9799 297.187Z" fill="#595A51"/>
<path d="M121.509 339.528L143.882 338.737L135.487 340.319L122.308 340.327V353.114H121.509V339.528Z" fill="#595A51"/>
</svg>
